<?xml version="1.0" encoding="UTF-8" standalone="no"?>
<!-- Created with Inkscape (http://www.inkscape.org/) -->

<svg
   xmlns:dc="http://purl.org/dc/elements/1.1/"
   xmlns:cc="http://creativecommons.org/ns#"
   xmlns:rdf="http://www.w3.org/1999/02/22-rdf-syntax-ns#"
   xmlns:svg="http://www.w3.org/2000/svg"
   xmlns="http://www.w3.org/2000/svg"
   xmlns:sodipodi="http://sodipodi.sourceforge.net/DTD/sodipodi-0.dtd"
   xmlns:inkscape="http://www.inkscape.org/namespaces/inkscape"
   width="250"
   height="65"
   viewBox="0 0 66.145832 17.197917"
   version="1.1"
   id="svg8"
   inkscape:version="0.92.3 (2405546, 2018-03-11)"
   sodipodi:docname="Azuma-Logo.svg">
  <defs
     id="defs2" />
  <sodipodi:namedview
     id="base"
     pagecolor="#ffffff"
     bordercolor="#666666"
     borderopacity="1.0"
     inkscape:pageopacity="0.0"
     inkscape:pageshadow="2"
     inkscape:zoom="2.8284271"
     inkscape:cx="140.89451"
     inkscape:cy="22.102736"
     inkscape:document-units="px"
     inkscape:current-layer="layer1"
     showgrid="false"
     inkscape:snap-bbox="true"
     inkscape:bbox-paths="true"
     inkscape:bbox-nodes="true"
     inkscape:snap-bbox-edge-midpoints="true"
     inkscape:snap-bbox-midpoints="true"
     inkscape:object-paths="true"
     inkscape:snap-intersection-paths="true"
     inkscape:snap-smooth-nodes="true"
     inkscape:snap-midpoints="true"
     inkscape:snap-object-midpoints="true"
     inkscape:snap-center="true"
     inkscape:snap-text-baseline="true"
     units="px"
     inkscape:window-width="1920"
     inkscape:window-height="1057"
     inkscape:window-x="1912"
     inkscape:window-y="-8"
     inkscape:window-maximized="1" />
  <metadata
     id="metadata5">
    <rdf:RDF>
      <cc:Work
         rdf:about="">
        <dc:format>image/svg+xml</dc:format>
        <dc:type
           rdf:resource="http://purl.org/dc/dcmitype/StillImage" />
        <dc:title />
      </cc:Work>
    </rdf:RDF>
  </metadata>
  <g
     inkscape:label="Layer 1"
     inkscape:groupmode="layer"
     id="layer1"
     transform="translate(0,-279.80208)">
    <g
       aria-label="Azuma"
       transform="matrix(0.50114276,0,0,0.50114276,203.55029,115.65542)"
       style="font-style:normal;font-variant:normal;font-weight:normal;font-stretch:normal;font-size:40px;line-height:1.25;font-family:FARRAY;-inkscape-font-specification:FARRAY;letter-spacing:0px;word-spacing:0px;fill:#000000;fill-opacity:1;stroke:none"
       id="flowRoot815">
      <path
         d="m -382.93227,348.54211 c 0,-0.44 -0.36,-0.76 -0.8,-0.76 h -2.64 l -4.88,-19.56 -0.04,-0.2 c -0.12,-0.28 -0.4,-0.48 -0.72,-0.48 h -5.24 c -0.32,0 -0.6,0.2 -0.72,0.48 l -0.04,0.24 -8.12,32.44 c 0,0.04 0,0.08 -0.04,0.08 v 0.16 c 0,0.48 0.36,0.84 0.76,0.84 h 4.84 c 0.32,0 0.64,-0.24 0.72,-0.56 0,-0.04 0.04,-0.08 0.04,-0.08 l 1.76,-7.16 h 6.84 l 1.76,7.12 0.04,0.12 c 0.12,0.32 0.4,0.56 0.72,0.56 h 4.84 c 0.44,0 0.76,-0.36 0.76,-0.84 v -0.08 l -0.04,-0.2 -1.68,-6.68 h 1.08 c 0.44,0 0.8,-0.32 0.8,-0.76 z m -13.56,-0.76 1.88,-7.4 1.84,7.4 z"
         style=""
         id="path819" />
      <path
         d="m -359.36539,332.90211 c 0,0.52 -0.12,1 -0.36,1.48 l -11.32,21.2 h 10.72 c 0.52,0 0.96,0.32 0.96,0.76 v 4.68 c 0,0.44 -0.44,0.8 -0.96,0.8 h -17 c -0.44,0 -0.8,-0.36 -0.8,-0.8 v -4.56 c 0,-0.56 0.12,-1.08 0.36,-1.6 l 11.32,-21.16 h -10.88 c -0.44,0 -0.8,-0.36 -0.8,-0.8 v -4.68 c 0,-0.44 0.36,-0.8 0.8,-0.8 h 17 c 0.52,0 0.96,0.36 0.96,0.8 z"
         style=""
         id="path821" />
      <path
         d="m -331.09164,351.10211 c 0,3.32 -1.36,6.2 -3.88,8.2 -2.12,1.64 -4.88,2.56 -7.84,2.56 -2.96,0 -5.72,-0.92 -7.84,-2.56 -2.52,-2 -3.88,-4.88 -3.88,-8.2 v -22.8 c 0,-0.44 0.36,-0.84 0.8,-0.84 h 4.68 c 0.44,0 0.76,0.4 0.76,0.84 v 22.8 c 0,4.36 4.92,4.52 5.48,4.52 0.56,0 5.48,-0.16 5.48,-4.52 v -22.8 c 0,-0.44 0.36,-0.84 0.76,-0.84 h 4.72 c 0.4,0 0.76,0.4 0.76,0.84 z"
         style=""
         id="path823" />
      <path
         d="m -326.32852,327.50211 13.08,13.08 13.08,-13.08 v 33.56 c 0,0.44 -0.32,0.8 -0.76,0.8 h -4.6 c -0.44,0 -0.8,-0.36 -0.8,-0.8 v -18.72 l -6.92,6.92 -6.92,-6.92 v 18.72 c 0,0.44 -0.32,0.8 -0.76,0.8 h -4.64 c -0.4,0 -0.76,-0.36 -0.76,-0.8 z"
         style=""
         id="path825" />
      <path
         d="m -274.18227,348.54211 c 0,-0.44 -0.36,-0.76 -0.8,-0.76 h -2.64 l -4.88,-19.56 -0.04,-0.2 c -0.12,-0.28 -0.4,-0.48 -0.72,-0.48 h -5.24 c -0.32,0 -0.6,0.2 -0.72,0.48 l -0.04,0.24 -8.12,32.44 c 0,0.04 0,0.08 -0.04,0.08 v 0.16 c 0,0.48 0.36,0.84 0.76,0.84 h 4.84 c 0.32,0 0.64,-0.24 0.72,-0.56 0,-0.04 0.04,-0.08 0.04,-0.08 l 1.76,-7.16 h 6.84 l 1.76,7.12 0.04,0.12 c 0.12,0.32 0.4,0.56 0.72,0.56 h 4.84 c 0.44,0 0.76,-0.36 0.76,-0.84 v -0.08 l -0.04,-0.2 -1.68,-6.68 h 1.08 c 0.44,0 0.8,-0.32 0.8,-0.76 z m -13.56,-0.76 1.88,-7.4 1.84,7.4 z"
         style=""
         id="path827" />
    </g>
  </g>
</svg>
