<?xml version="1.0" encoding="UTF-8" standalone="no"?>
<!-- Created with Inkscape (http://www.inkscape.org/) -->

<svg
   xmlns:dc="http://purl.org/dc/elements/1.1/"
   xmlns:cc="http://creativecommons.org/ns#"
   xmlns:rdf="http://www.w3.org/1999/02/22-rdf-syntax-ns#"
   xmlns:svg="http://www.w3.org/2000/svg"
   xmlns="http://www.w3.org/2000/svg"
   xmlns:xlink="http://www.w3.org/1999/xlink"
   xmlns:sodipodi="http://sodipodi.sourceforge.net/DTD/sodipodi-0.dtd"
   xmlns:inkscape="http://www.inkscape.org/namespaces/inkscape"
   width="200"
   height="200"
   viewBox="0 0 52.916665 52.916668"
   version="1.1"
   id="svg1452"
   inkscape:version="0.92.3 (2405546, 2018-03-11)"
   sodipodi:docname="azuma-5.svg">
  <defs
     id="defs1446">
    <linearGradient
       inkscape:collect="always"
       xlink:href="#linearGradient1444"
       id="linearGradient1434"
       gradientUnits="userSpaceOnUse"
       gradientTransform="translate(86.060788,158.49083)"
       x1="65.748299"
       y1="88.52977"
       x2="124.68945"
       y2="74.698227" />
    <linearGradient
       id="linearGradient1444"
       inkscape:collect="always">
      <stop
         id="stop1440"
         offset="0"
         style="stop-color:#55ff55;stop-opacity:1" />
      <stop
         id="stop1442"
         offset="1"
         style="stop-color:#217821;stop-opacity:1" />
    </linearGradient>
  </defs>
  <sodipodi:namedview
     id="base"
     pagecolor="#ffffff"
     bordercolor="#666666"
     borderopacity="1.0"
     inkscape:pageopacity="0.0"
     inkscape:pageshadow="2"
     inkscape:zoom="4.23"
     inkscape:cx="99.999997"
     inkscape:cy="100.00001"
     inkscape:document-units="mm"
     inkscape:current-layer="layer1"
     showgrid="false"
     borderlayer="false"
     units="px"
     inkscape:window-width="1920"
     inkscape:window-height="1057"
     inkscape:window-x="1912"
     inkscape:window-y="-8"
     inkscape:window-maximized="1" />
  <metadata
     id="metadata1449">
    <rdf:RDF>
      <cc:Work
         rdf:about="">
        <dc:format>image/svg+xml</dc:format>
        <dc:type
           rdf:resource="http://purl.org/dc/dcmitype/StillImage" />
        <dc:title></dc:title>
      </cc:Work>
    </rdf:RDF>
  </metadata>
  <g
     inkscape:label="Layer 1"
     inkscape:groupmode="layer"
     id="layer1"
     transform="translate(0,-244.08332)">
    <g
       transform="matrix(0.81395352,0,0,0.81395352,-119.12046,75.15664)"
       id="g2015">
      <circle
         r="32.505951"
         cy="240.04443"
         cx="178.85394"
         id="circle1430"
         style="opacity:1;fill:url(#linearGradient1434);fill-opacity:1;stroke:none;stroke-width:1.58799994;stroke-linecap:round;stroke-linejoin:round;stroke-miterlimit:4;stroke-dasharray:none;stroke-dashoffset:0;stroke-opacity:1" />
      <path
         id="path1432"
         style="font-style:normal;font-variant:normal;font-weight:normal;font-stretch:normal;font-size:40px;line-height:1.25;font-family:FARRAY;-inkscape-font-specification:FARRAY;letter-spacing:0px;word-spacing:0px;fill:#ffffff;fill-opacity:1;stroke:none;stroke-width:0.84806383"
         d="m 188.70844,243.3349 c 0,-0.37314 -0.3053,-0.64453 -0.67846,-0.64453 h -2.23888 l -4.13855,-16.58813 -0.0339,-0.16961 c -0.10178,-0.23746 -0.33923,-0.40707 -0.61061,-0.40707 h -4.44387 c -0.27138,0 -0.50883,0.16961 -0.6106,0.40707 l -0.0339,0.20353 -6.88628,27.5112 c 0,0.0339 0,0.0679 -0.0339,0.0679 v 0.13573 c 0,0.40705 0.3053,0.71236 0.64453,0.71236 h 4.10463 c 0.27138,0 0.54276,-0.20354 0.61061,-0.4749 0,-0.0339 0.0339,-0.0679 0.0339,-0.0679 l 1.49259,-6.07215 h 5.80076 l 1.49259,6.03822 0.0339,0.10171 c 0.10177,0.27139 0.33923,0.47492 0.61061,0.47492 h 4.10462 c 0.37315,0 0.64453,-0.30531 0.64453,-0.71238 v -0.0679 l -0.0339,-0.16962 -1.42476,-5.66506 h 0.91591 c 0.37315,0 0.67846,-0.2714 0.67846,-0.64453 z m -11.49975,-0.64453 1.59436,-6.27568 1.56044,6.27568 z"
         inkscape:connector-curvature="0" />
    </g>
  </g>
</svg>
