<?xml version="1.0" encoding="UTF-8" standalone="no"?>
<!-- Created with Inkscape (http://www.inkscape.org/) -->

<svg
   xmlns:dc="http://purl.org/dc/elements/1.1/"
   xmlns:cc="http://creativecommons.org/ns#"
   xmlns:rdf="http://www.w3.org/1999/02/22-rdf-syntax-ns#"
   xmlns:svg="http://www.w3.org/2000/svg"
   xmlns="http://www.w3.org/2000/svg"
   xmlns:xlink="http://www.w3.org/1999/xlink"
   xmlns:sodipodi="http://sodipodi.sourceforge.net/DTD/sodipodi-0.dtd"
   xmlns:inkscape="http://www.inkscape.org/namespaces/inkscape"
   width="210mm"
   height="297mm"
   viewBox="0 0 210 297"
   version="1.1"
   id="svg841"
   inkscape:version="0.92.3 (2405546, 2018-03-11)"
   sodipodi:docname="collection.svg">
  <defs
     id="defs835">
    <linearGradient
       id="linearGradient1444"
       inkscape:collect="always">
      <stop
         id="stop1440"
         offset="0"
         style="stop-color:#55ff55;stop-opacity:1" />
      <stop
         id="stop1442"
         offset="1"
         style="stop-color:#217821;stop-opacity:1" />
    </linearGradient>
    <linearGradient
       inkscape:collect="always"
       id="linearGradient1428">
      <stop
         style="stop-color:#8d5fd3;stop-opacity:1"
         offset="0"
         id="stop1424" />
      <stop
         style="stop-color:#4400aa;stop-opacity:1"
         offset="1"
         id="stop1426" />
    </linearGradient>
    <linearGradient
       id="linearGradient1416"
       inkscape:collect="always">
      <stop
         id="stop1412"
         offset="0"
         style="stop-color:#5f8dd3;stop-opacity:1" />
      <stop
         id="stop1414"
         offset="1"
         style="stop-color:#000080;stop-opacity:1" />
    </linearGradient>
    <linearGradient
       inkscape:collect="always"
       id="linearGradient1402">
      <stop
         style="stop-color:#ff5555;stop-opacity:1"
         offset="0"
         id="stop1398" />
      <stop
         style="stop-color:#800000;stop-opacity:1"
         offset="1"
         id="stop1400" />
    </linearGradient>
    <linearGradient
       inkscape:collect="always"
       xlink:href="#linearGradient1402"
       id="linearGradient1404"
       x1="65.748299"
       y1="88.52977"
       x2="124.68945"
       y2="74.698227"
       gradientUnits="userSpaceOnUse" />
    <linearGradient
       inkscape:collect="always"
       xlink:href="#linearGradient1416"
       id="linearGradient1410"
       gradientUnits="userSpaceOnUse"
       x1="65.748299"
       y1="88.52977"
       x2="124.68945"
       y2="74.698227"
       gradientTransform="translate(86.060788)" />
    <linearGradient
       inkscape:collect="always"
       xlink:href="#linearGradient1428"
       id="linearGradient1422"
       gradientUnits="userSpaceOnUse"
       gradientTransform="translate(86.060788,80.448128)"
       x1="65.748299"
       y1="88.52977"
       x2="124.68945"
       y2="74.698227" />
    <linearGradient
       inkscape:collect="always"
       xlink:href="#linearGradient1444"
       id="linearGradient1434"
       gradientUnits="userSpaceOnUse"
       gradientTransform="translate(86.060788,158.49083)"
       x1="65.748299"
       y1="88.52977"
       x2="124.68945"
       y2="74.698227" />
  </defs>
  <sodipodi:namedview
     id="base"
     pagecolor="#ffffff"
     bordercolor="#666666"
     borderopacity="1.0"
     inkscape:pageopacity="0.0"
     inkscape:pageshadow="2"
     inkscape:zoom="0.7"
     inkscape:cx="291.91722"
     inkscape:cy="454.81317"
     inkscape:document-units="mm"
     inkscape:current-layer="layer1"
     showgrid="false"
     inkscape:window-width="1920"
     inkscape:window-height="1027"
     inkscape:window-x="-8"
     inkscape:window-y="22"
     inkscape:window-maximized="1" />
  <metadata
     id="metadata838">
    <rdf:RDF>
      <cc:Work
         rdf:about="">
        <dc:format>image/svg+xml</dc:format>
        <dc:type
           rdf:resource="http://purl.org/dc/dcmitype/StillImage" />
        <dc:title></dc:title>
      </cc:Work>
    </rdf:RDF>
  </metadata>
  <g
     inkscape:label="Layer 1"
     inkscape:groupmode="layer"
     id="layer1">
    <g
       id="g2007">
      <circle
         r="32.505951"
         cy="162.81847"
         cx="92.793152"
         id="path1392"
         style="opacity:1;fill:#333333;fill-opacity:1;stroke:none;stroke-width:1.58799994;stroke-linecap:round;stroke-linejoin:round;stroke-miterlimit:4;stroke-dasharray:none;stroke-dashoffset:0;stroke-opacity:1" />
      <path
         id="path819"
         style="font-style:normal;font-variant:normal;font-weight:normal;font-stretch:normal;font-size:40px;line-height:1.25;font-family:FARRAY;-inkscape-font-specification:FARRAY;letter-spacing:0px;word-spacing:0px;fill:#ffffff;fill-opacity:1;stroke:none;stroke-width:0.84806383"
         d="m 102.64765,166.10895 c 0,-0.37314 -0.3053,-0.64453 -0.67846,-0.64453 h -2.238884 l -4.138552,-16.58813 -0.03391,-0.16961 c -0.101774,-0.23746 -0.339228,-0.40707 -0.610607,-0.40707 h -4.443865 c -0.271379,0 -0.508837,0.16961 -0.610604,0.40707 l -0.03393,0.20353 -6.886277,27.5112 c 0,0.0339 0,0.0679 -0.03393,0.0679 v 0.13573 c 0,0.40705 0.305302,0.71236 0.644529,0.71236 h 4.104628 c 0.27138,0 0.542761,-0.20354 0.610606,-0.4749 0,-0.0339 0.03391,-0.0679 0.03391,-0.0679 l 1.492595,-6.07215 h 5.800757 l 1.492592,6.03822 0.03393,0.10171 c 0.101773,0.27139 0.339227,0.47492 0.610607,0.47492 h 4.104625 c 0.37315,0 0.64453,-0.30531 0.64453,-0.71238 v -0.0679 l -0.0339,-0.16962 -1.42476,-5.66506 h 0.91591 c 0.37315,0 0.67846,-0.2714 0.67846,-0.64453 z m -11.499751,-0.64453 1.59436,-6.27568 1.560438,6.27568 z"
         inkscape:connector-curvature="0" />
    </g>
    <g
       id="g1999">
      <circle
         style="opacity:1;fill:url(#linearGradient1404);fill-opacity:1;stroke:none;stroke-width:1.58799994;stroke-linecap:round;stroke-linejoin:round;stroke-miterlimit:4;stroke-dasharray:none;stroke-dashoffset:0;stroke-opacity:1"
         id="circle1394"
         cx="92.793152"
         cy="81.553589"
         r="32.505951" />
      <path
         inkscape:connector-curvature="0"
         d="m 102.64765,84.844069 c 0,-0.37314 -0.3053,-0.64453 -0.67846,-0.64453 h -2.238884 l -4.138552,-16.58813 -0.03391,-0.16961 c -0.101774,-0.23746 -0.339228,-0.40707 -0.610607,-0.40707 h -4.443865 c -0.271379,0 -0.508837,0.16961 -0.610604,0.40707 l -0.03393,0.20353 -6.886277,27.5112 c 0,0.0339 0,0.0679 -0.03393,0.0679 v 0.13573 c 0,0.40705 0.305302,0.71236 0.644529,0.71236 h 4.104628 c 0.27138,0 0.542761,-0.20354 0.610606,-0.4749 0,-0.0339 0.03391,-0.0679 0.03391,-0.0679 l 1.492595,-6.07215 h 5.800757 l 1.492592,6.03822 0.03393,0.10171 c 0.101773,0.27139 0.339227,0.47492 0.610607,0.47492 h 4.104625 c 0.37315,0 0.64453,-0.30531 0.64453,-0.71238 v -0.0679 l -0.0339,-0.16962 -1.42476,-5.66506 h 0.91591 c 0.37315,0 0.67846,-0.2714 0.67846,-0.64453 z m -11.499751,-0.64453 1.59436,-6.27568 1.560438,6.27568 z"
         style="font-style:normal;font-variant:normal;font-weight:normal;font-stretch:normal;font-size:40px;line-height:1.25;font-family:FARRAY;-inkscape-font-specification:FARRAY;letter-spacing:0px;word-spacing:0px;fill:#ffffff;fill-opacity:1;stroke:none;stroke-width:0.84806383"
         id="path1396" />
    </g>
    <g
       id="g2003">
      <circle
         r="32.505951"
         cy="81.553589"
         cx="178.85394"
         id="circle1406"
         style="opacity:1;fill:url(#linearGradient1410);fill-opacity:1;stroke:none;stroke-width:1.58799994;stroke-linecap:round;stroke-linejoin:round;stroke-miterlimit:4;stroke-dasharray:none;stroke-dashoffset:0;stroke-opacity:1" />
      <path
         id="path1408"
         style="font-style:normal;font-variant:normal;font-weight:normal;font-stretch:normal;font-size:40px;line-height:1.25;font-family:FARRAY;-inkscape-font-specification:FARRAY;letter-spacing:0px;word-spacing:0px;fill:#ffffff;fill-opacity:1;stroke:none;stroke-width:0.84806383"
         d="m 188.70844,84.844069 c 0,-0.37314 -0.3053,-0.64453 -0.67846,-0.64453 h -2.23888 l -4.13855,-16.58813 -0.0339,-0.16961 c -0.10178,-0.23746 -0.33923,-0.40707 -0.61061,-0.40707 h -4.44387 c -0.27138,0 -0.50883,0.16961 -0.6106,0.40707 l -0.0339,0.20353 -6.88628,27.5112 c 0,0.0339 0,0.0679 -0.0339,0.0679 v 0.13573 c 0,0.40705 0.3053,0.71236 0.64453,0.71236 h 4.10463 c 0.27138,0 0.54276,-0.20354 0.61061,-0.4749 0,-0.0339 0.0339,-0.0679 0.0339,-0.0679 l 1.49259,-6.07215 h 5.80076 l 1.49259,6.03822 0.0339,0.10171 c 0.10177,0.27139 0.33923,0.47492 0.61061,0.47492 h 4.10462 c 0.37315,0 0.64453,-0.30531 0.64453,-0.71238 v -0.0679 l -0.0339,-0.16962 -1.42476,-5.66506 h 0.91591 c 0.37315,0 0.67846,-0.2714 0.67846,-0.64453 z m -11.49975,-0.64453 1.59436,-6.27568 1.56044,6.27568 z"
         inkscape:connector-curvature="0" />
    </g>
    <g
       id="g2011">
      <circle
         style="opacity:1;fill:url(#linearGradient1422);fill-opacity:1;stroke:none;stroke-width:1.58799994;stroke-linecap:round;stroke-linejoin:round;stroke-miterlimit:4;stroke-dasharray:none;stroke-dashoffset:0;stroke-opacity:1"
         id="circle1418"
         cx="178.85394"
         cy="162.00172"
         r="32.505951" />
      <path
         inkscape:connector-curvature="0"
         d="m 188.70844,165.2922 c 0,-0.37314 -0.3053,-0.64453 -0.67846,-0.64453 h -2.23888 l -4.13855,-16.58813 -0.0339,-0.16961 c -0.10178,-0.23746 -0.33923,-0.40707 -0.61061,-0.40707 h -4.44387 c -0.27138,0 -0.50883,0.16961 -0.6106,0.40707 l -0.0339,0.20353 -6.88628,27.5112 c 0,0.0339 0,0.0679 -0.0339,0.0679 v 0.13573 c 0,0.40705 0.3053,0.71236 0.64453,0.71236 h 4.10463 c 0.27138,0 0.54276,-0.20354 0.61061,-0.4749 0,-0.0339 0.0339,-0.0679 0.0339,-0.0679 l 1.49259,-6.07215 h 5.80076 l 1.49259,6.03822 0.0339,0.10171 c 0.10177,0.27139 0.33923,0.47492 0.61061,0.47492 h 4.10462 c 0.37315,0 0.64453,-0.30531 0.64453,-0.71238 v -0.0679 l -0.0339,-0.16962 -1.42476,-5.66506 h 0.91591 c 0.37315,0 0.67846,-0.2714 0.67846,-0.64453 z m -11.49975,-0.64453 1.59436,-6.27568 1.56044,6.27568 z"
         style="font-style:normal;font-variant:normal;font-weight:normal;font-stretch:normal;font-size:40px;line-height:1.25;font-family:FARRAY;-inkscape-font-specification:FARRAY;letter-spacing:0px;word-spacing:0px;fill:#ffffff;fill-opacity:1;stroke:none;stroke-width:0.84806383"
         id="path1420" />
    </g>
    <g
       id="g2015">
      <circle
         r="32.505951"
         cy="240.04443"
         cx="178.85394"
         id="circle1430"
         style="opacity:1;fill:url(#linearGradient1434);fill-opacity:1;stroke:none;stroke-width:1.58799994;stroke-linecap:round;stroke-linejoin:round;stroke-miterlimit:4;stroke-dasharray:none;stroke-dashoffset:0;stroke-opacity:1" />
      <path
         id="path1432"
         style="font-style:normal;font-variant:normal;font-weight:normal;font-stretch:normal;font-size:40px;line-height:1.25;font-family:FARRAY;-inkscape-font-specification:FARRAY;letter-spacing:0px;word-spacing:0px;fill:#ffffff;fill-opacity:1;stroke:none;stroke-width:0.84806383"
         d="m 188.70844,243.3349 c 0,-0.37314 -0.3053,-0.64453 -0.67846,-0.64453 h -2.23888 l -4.13855,-16.58813 -0.0339,-0.16961 c -0.10178,-0.23746 -0.33923,-0.40707 -0.61061,-0.40707 h -4.44387 c -0.27138,0 -0.50883,0.16961 -0.6106,0.40707 l -0.0339,0.20353 -6.88628,27.5112 c 0,0.0339 0,0.0679 -0.0339,0.0679 v 0.13573 c 0,0.40705 0.3053,0.71236 0.64453,0.71236 h 4.10463 c 0.27138,0 0.54276,-0.20354 0.61061,-0.4749 0,-0.0339 0.0339,-0.0679 0.0339,-0.0679 l 1.49259,-6.07215 h 5.80076 l 1.49259,6.03822 0.0339,0.10171 c 0.10177,0.27139 0.33923,0.47492 0.61061,0.47492 h 4.10462 c 0.37315,0 0.64453,-0.30531 0.64453,-0.71238 v -0.0679 l -0.0339,-0.16962 -1.42476,-5.66506 h 0.91591 c 0.37315,0 0.67846,-0.2714 0.67846,-0.64453 z m -11.49975,-0.64453 1.59436,-6.27568 1.56044,6.27568 z"
         inkscape:connector-curvature="0" />
    </g>
    <g
       id="g2019">
      <circle
         style="opacity:1;fill:#f2f2f2;fill-opacity:1;stroke:none;stroke-width:1.58799994;stroke-linecap:round;stroke-linejoin:round;stroke-miterlimit:4;stroke-dasharray:none;stroke-dashoffset:0;stroke-opacity:1"
         id="circle1436"
         cx="92.793152"
         cy="238.18848"
         r="32.505951" />
      <path
         inkscape:connector-curvature="0"
         d="m 102.64765,241.47896 c 0,-0.37314 -0.3053,-0.64453 -0.67846,-0.64453 h -2.238884 l -4.138552,-16.58813 -0.03391,-0.16961 c -0.101774,-0.23746 -0.339228,-0.40707 -0.610607,-0.40707 h -4.443865 c -0.271379,0 -0.508837,0.16961 -0.610604,0.40707 l -0.03393,0.20353 -6.886277,27.5112 c 0,0.0339 0,0.0679 -0.03393,0.0679 v 0.13573 c 0,0.40705 0.305302,0.71236 0.644529,0.71236 h 4.104628 c 0.27138,0 0.542761,-0.20354 0.610606,-0.4749 0,-0.0339 0.03391,-0.0679 0.03391,-0.0679 l 1.492595,-6.07215 h 5.800757 l 1.492592,6.03822 0.03393,0.10171 c 0.101773,0.27139 0.339227,0.47492 0.610607,0.47492 h 4.104625 c 0.37315,0 0.64453,-0.30531 0.64453,-0.71238 v -0.0679 l -0.0339,-0.16962 -1.42476,-5.66506 h 0.91591 c 0.37315,0 0.67846,-0.2714 0.67846,-0.64453 z m -11.499751,-0.64453 1.59436,-6.27568 1.560438,6.27568 z"
         style="font-style:normal;font-variant:normal;font-weight:normal;font-stretch:normal;font-size:40px;line-height:1.25;font-family:FARRAY;-inkscape-font-specification:FARRAY;letter-spacing:0px;word-spacing:0px;fill:#4d4d4d;fill-opacity:1;stroke:none;stroke-width:0.84806383"
         id="path1438" />
    </g>
  </g>
</svg>
